<?xml version="1.0" encoding="UTF-8"?>
<svg version="1.1" xmlns="http://www.w3.org/2000/svg" width="256" height="256">
<path d="M0 0 C4.92631244 2.10413772 6.88421273 5.63896 9.75 10 C10.27787109 10.80091064 10.80574219 11.60182129 11.34960938 12.42700195 C21.03052145 27.51289341 28.29535073 44.89357751 29 63 C29.05994141 64.15822266 29.05994141 64.15822266 29.12109375 65.33984375 C29.62432303 83.6041065 23.93809978 100.32620696 15 116 C14.02728048 117.02655576 13.03294485 118.03406784 12 119 C0.95308189 107.7198265 1.37881846 95.22725211 0.9375 80.1875 C0.8378165 77.83772493 0.73433256 75.48810784 0.62695312 73.13867188 C0.37409816 67.42686564 0.16831587 61.71488981 0 56 C0.66 56 1.32 56 2 56 C4.4977148 66.03147243 6.40653884 76.16121741 8.28588867 86.32373047 C8.59683472 87.98106201 8.59683472 87.98106201 8.9140625 89.671875 C9.1917749 91.17379395 9.1917749 91.17379395 9.47509766 92.70605469 C9.77524354 94.95243268 9.77524354 94.95243268 11 96 C11.65003625 93.79290017 12.29484745 91.58426108 12.9375 89.375 C13.29714844 88.14523438 13.65679687 86.91546875 14.02734375 85.6484375 C19.85055007 63.80556719 13.7890677 42.94440577 3.11328125 23.64453125 C2.08712497 21.83940879 2.08712497 21.83940879 0 21 C-0.27199219 21.71671875 -0.54398438 22.4334375 -0.82421875 23.171875 C-1.99317899 25.98359332 -3.36334552 28.57346139 -4.8125 31.25 C-13.99344414 49.86002191 -16.87108477 71.50626964 -10.36328125 91.56640625 C-5.44631305 103.95040352 1.26102384 114.61332503 8.62109375 125.69213867 C18.80566091 141.13005607 24.0746471 155.2244656 21.60546875 174 C18.63110602 188.12342561 10.46003373 200.56328774 2 212 C-11.42236603 199.34462631 -18.81492628 182.4578994 -20.3125 164.1875 C-20.02048918 154.72634936 -17.32352017 145.36697425 -13 137 C-12.44505859 135.89011719 -12.44505859 135.89011719 -11.87890625 134.7578125 C-11.58886719 134.17773438 -11.29882812 133.59765625 -11 133 C-10.34 133 -9.68 133 -9 133 C-7.45703125 134.7578125 -7.45703125 134.7578125 -5.8125 137.125 C-5.26207031 137.89070312 -4.71164063 138.65640625 -4.14453125 139.4453125 C-2.00088245 144.23011221 -4.23208899 149.02896183 -5.5625 153.875 C-8.97007446 167.43848264 -5.57485003 177.96678391 1 190 C8.52903698 179.34626388 10.12237758 168.8127598 9 156 C7.01015359 146.37678799 2.17933077 138.64361043 -3.29296875 130.640625 C-20.131452 105.96096728 -30.4469215 80.85829253 -25.3515625 50.29296875 C-24.53295572 46.42131905 -23.34011823 42.72432858 -22 39 C-21.66186279 38.05568115 -21.66186279 38.05568115 -21.31689453 37.09228516 C-16.3747182 23.70848244 -8.6196839 11.32241263 0 0 Z " fill="#EB85AF" transform="translate(127,25)"/>
<path d="M0 0 C0.70769531 0.62390625 1.41539063 1.2478125 2.14453125 1.890625 C2.88316406 2.53515625 3.62179688 3.1796875 4.3828125 3.84375 C14.7854691 13.54570953 21.14118099 26.1890029 27.14453125 38.890625 C22.86646966 43.16868659 5.76908569 42.06823282 -0.10546875 42.203125 C-21.1388463 41.81089418 -38.16586168 33.52983891 -52.85546875 18.890625 C-58.70675001 12.41484504 -62.63473197 4.4691544 -66.85546875 -3.109375 C-67.22897461 -3.74343262 -67.60248047 -4.37749023 -67.98730469 -5.03076172 C-70.85546875 -9.9056316 -70.85546875 -9.9056316 -70.85546875 -12.109375 C-46.45661744 -16.9204161 -19.91962043 -16.50995568 0 0 Z M-50.85546875 -3.109375 C-51.18546875 -2.119375 -51.51546875 -1.129375 -51.85546875 -0.109375 C-43.87573427 13.81082848 -31.90651922 23.55628762 -16.57421875 28.1796875 C-10.58987379 29.74455932 -4.99292323 29.99829964 1.14453125 29.890625 C-2.26096747 27.09700355 -5.73989169 24.56265125 -9.41796875 22.140625 C-10.45566406 21.45484375 -11.49335937 20.7690625 -12.5625 20.0625 C-13.64917969 19.34578125 -14.73585937 18.6290625 -15.85546875 17.890625 C-18.10724206 16.39326909 -20.3562767 14.89186088 -22.60546875 13.390625 C-23.6109375 12.7203125 -24.61640625 12.05 -25.65234375 11.359375 C-26.379375 10.8746875 -27.10640625 10.39 -27.85546875 9.890625 C-24.29948896 10.64458274 -21.11623283 11.97059326 -17.77734375 13.39453125 C-16.6171875 13.88759766 -15.45703125 14.38066406 -14.26171875 14.88867188 C-13.05515625 15.40494141 -11.84859375 15.92121094 -10.60546875 16.453125 C-9.37120898 16.97878626 -8.13683516 17.50417984 -6.90234375 18.02929688 C-3.88558584 19.31377583 -0.87002172 20.60098175 2.14453125 21.890625 C2.14453125 18.34658164 1.5346364 17.78794595 -0.73046875 15.203125 C-1.26414063 14.58050781 -1.7978125 13.95789063 -2.34765625 13.31640625 C-3.75180474 11.66160314 -3.75180474 11.66160314 -5.85546875 11.890625 C-5.85546875 11.230625 -5.85546875 10.570625 -5.85546875 9.890625 C-19.55449469 -0.68314787 -33.89445125 -3.59474593 -50.85546875 -3.109375 Z " fill="#EB84AE" transform="translate(86.85546875,119.109375)"/>
<path d="M0 0 C-0.59109963 4.85076997 -2.67736545 8.51634752 -5.0625 12.6875 C-5.46734619 13.39793457 -5.87219238 14.10836914 -6.28930664 14.84033203 C-9.69358067 20.69124099 -13.45093918 25.97298907 -18 31 C-18.75925781 31.85207031 -19.51851563 32.70414063 -20.30078125 33.58203125 C-32.64122186 46.7097408 -48.61606552 53.22073493 -66.4609375 54.1875 C-76.41270243 54.35725292 -86.14412466 53.2644422 -96 52 C-97 49 -97 49 -96.24658203 46.99804688 C-95.83778809 46.24587891 -95.42899414 45.49371094 -95.0078125 44.71875 C-94.5545459 43.88182617 -94.1012793 43.04490234 -93.63427734 42.18261719 C-93.13621582 41.29735352 -92.6381543 40.41208984 -92.125 39.5 C-91.62049316 38.59668945 -91.11598633 37.69337891 -90.59619141 36.76269531 C-86.66396561 29.86983685 -82.52143735 23.74109671 -77 18 C-76.31808594 17.28972656 -75.63617188 16.57945313 -74.93359375 15.84765625 C-54.84724597 -3.42488001 -26.2504043 -5.84502044 0 0 Z M-71 29 C-72.79521047 31.68598292 -72.79521047 31.68598292 -74 34 C-66.32589793 31.64871119 -59.19208889 28.45021577 -51.93359375 25.05273438 C-50.65548828 24.46395508 -50.65548828 24.46395508 -49.3515625 23.86328125 C-48.58666504 23.50532471 -47.82176758 23.14736816 -47.03369141 22.77856445 C-45 22 -45 22 -42 22 C-42.73637695 22.46374023 -43.47275391 22.92748047 -44.23144531 23.40527344 C-46.9774379 25.13808049 -49.72039759 26.87556352 -52.46142578 28.61621094 C-53.64546306 29.36678002 -54.83067063 30.11550641 -56.01708984 30.86230469 C-57.72809297 31.93976257 -59.4346947 33.02390811 -61.140625 34.109375 C-62.16704102 34.75874023 -63.19345703 35.40810547 -64.25097656 36.07714844 C-66.8081477 37.86580562 -68.87998424 39.72031778 -71 42 C-55.60467785 42.57019712 -41.55367343 37.22387843 -30 27 C-25.06475553 21.74370332 -21.06917249 16.54117388 -18 10 C-19.84509161 8.15490839 -22.71094455 8.78298409 -25.1875 8.75 C-43.93216465 8.94030116 -58.36970785 15.42095351 -71 29 Z " fill="#EB85AF" transform="translate(240,107)"/>
<path d="M0 0 C3.87726314 2.01043274 6.89824862 4.12835271 9 8 C10.2853902 13.24043696 10.1201648 17.02222177 8 22 C5.2744761 24.94569157 2.1343158 27.73961347 -1.953125 28.23828125 C-7.50239994 28.41759456 -10.67028332 27.81427422 -15 24 C-17.96970154 20.21107045 -18.83466965 16.79458002 -19 12 C-17.40980479 6.78769347 -15.52824572 4.01883048 -11 1 C-7.52856436 -0.73571782 -3.79556182 -0.46645793 0 0 Z " fill="#EC84AE" transform="translate(78,67)"/>
<path d="M0 0 C4.00436616 2.88686863 6.16243647 6.1621642 7.0703125 10.9609375 C7.41967776 17.03989296 4.92125154 20.34634821 1.125 24.75 C-2.13535347 27.44333548 -6.00938144 27.2736432 -10.02734375 27.21484375 C-13.64994393 26.77517775 -15.64006608 25.35541641 -18.3125 22.9375 C-21.32834552 18.5142599 -22.22779805 14.2055488 -21.3125 8.9375 C-19.9648076 5.30017965 -18.04803316 2.58897223 -15.125 0 C-9.94104781 -1.95838194 -5.23364675 -1.67871688 0 0 Z " fill="#EC84AF" transform="translate(190.3125,68.0625)"/>
<path d="M0 0 C10.026612 -0.742712 17.46622233 2.94127533 25.09765625 9.28515625 C29.98659424 13.69222766 32.90986737 18.78519073 35 25 C35 26.32 35 27.64 35 29 C25.77094748 28.46755466 16.92183008 25.22392655 10 19 C5.11482831 13.22752161 1.85777911 7.32495765 0 0 Z " fill="#EC85B0" transform="translate(154,168)"/>
<path d="M0 0 C-1.03966117 8.31728939 -5.86511345 15.49112228 -12 21 C-18.89762722 25.84872084 -25.66775281 28.06524113 -34 29 C-35.31275643 25.0617307 -34.37070685 23.98057675 -32.5625 20.3125 C-27.50887376 10.69318385 -21.09916532 5.00188014 -11 1 C-7.29590736 -0.12245231 -3.86498815 -0.0743267 0 0 Z " fill="#EB86AF" transform="translate(102,168)"/>
<path d="M0 0 C8.415 3.465 8.415 3.465 17 7 C16.67 8.65 16.34 10.3 16 12 C12.63407005 10.39298831 9.48060336 8.52934654 6.3125 6.5625 C5.33925781 5.96566406 4.36601563 5.36882812 3.36328125 4.75390625 C1 3 1 3 0 0 Z " fill="#EC95B8" transform="translate(58,127)"/>
<path d="M0 0 C0.66 0 1.32 0 2 0 C2.3738763 1.30702211 2.72273656 2.62119795 3.0625 3.9375 C3.25972656 4.66839844 3.45695313 5.39929688 3.66015625 6.15234375 C4.05185777 9.43453239 3.67955233 12.27687253 3.26000977 15.54077148 C2.81906413 19.71133051 2.89525247 23.8734952 2.9375 28.0625 C2.94201172 28.92810547 2.94652344 29.79371094 2.95117188 30.68554688 C2.96280087 32.79039539 2.98072927 34.89520758 3 37 C2.67 37 2.34 37 2 37 C1.34 24.79 0.68 12.58 0 0 Z " fill="#EEADC7" transform="translate(127,81)"/>
<path d="M0 0 C-2.12114959 1.50571746 -4.24653615 3.00468679 -6.375 4.5 C-6.97828125 4.92925781 -7.5815625 5.35851562 -8.203125 5.80078125 C-12.7734375 9 -12.7734375 9 -15 9 C-15 8.01 -15 7.02 -15 6 C-15.66 5.67 -16.32 5.34 -17 5 C-14.9237343 3.96486753 -12.83868521 2.94733789 -10.75 1.9375 C-9.58984375 1.36902344 -8.4296875 0.80054688 -7.234375 0.21484375 C-4.09355667 -0.96485975 -3.00646952 -1.30230734 0 0 Z " fill="#E49AB7" transform="translate(199,129)"/>
<path d="M0 0 C2 3 2 3 2 7 C-0.64 6.67 -3.28 6.34 -6 6 C-6 5.67 -6 5.34 -6 5 C-4.35 4.67 -2.7 4.34 -1 4 C-0.67 2.68 -0.34 1.36 0 0 Z " fill="#EAACC4" transform="translate(187,190)"/>
<path d="M0 0 C1.32 0.66 2.64 1.32 4 2 C3 4 3 4 -0.0625 5.125 C-1.031875 5.41375 -2.00125 5.7025 -3 6 C-1.125 1.125 -1.125 1.125 0 0 Z " fill="#EB9FC0" transform="translate(127,25)"/>
<path d="M0 0 C0.66 0.99 1.32 1.98 2 3 C1 4 1 4 -1.28515625 4.09765625 C-2.65994141 4.08025391 -2.65994141 4.08025391 -4.0625 4.0625 C-4.98160156 4.05347656 -5.90070313 4.04445312 -6.84765625 4.03515625 C-7.55792969 4.02355469 -8.26820312 4.01195312 -9 4 C-9 3.67 -9 3.34 -9 3 C-4.545 2.505 -4.545 2.505 0 2 C0 1.34 0 0.68 0 0 Z " fill="#EEA5C3" transform="translate(112,155)"/>
<path d="M0 0 C2.64 0.99 5.28 1.98 8 3 C7.67 3.99 7.34 4.98 7 6 C2.32307692 4.52307692 2.32307692 4.52307692 0.6875 1.875 C0.460625 1.25625 0.23375 0.6375 0 0 Z " fill="#F0AEC6" transform="translate(58,127)"/>
</svg>
